<svg xmlns="http://www.w3.org/2000/svg" viewBox="0 0 999.68 200.86"><defs><style>.cls-1{fill:#fff;}</style></defs><title>logo-white</title><g id="Layer_2" data-name="Layer 2"><g id="Layer_1-2" data-name="Layer 1"><polygon class="cls-1" points="134.7 92 143.41 92 143.41 114.98 148.28 114.98 148.28 92 156.98 92 156.98 87.52 134.7 87.52 134.7 92"/><polygon class="cls-1" points="206.12 98.94 193.02 98.94 193.02 87.52 188.19 87.52 188.19 114.98 193.02 114.98 193.02 103.41 206.12 103.41 206.12 114.98 210.94 114.98 210.94 87.52 206.12 87.52 206.12 98.94"/><polygon class="cls-1" points="248.94 103.29 262.71 103.29 262.71 98.98 248.94 98.98 248.94 91.84 264.48 91.84 264.48 87.52 244.12 87.52 244.12 114.98 264.67 114.98 264.67 110.67 248.94 110.67 248.94 103.29"/><path class="cls-1" d="M344.62,87.52H334.39V115h10.23c8.63,0,14.59-6,14.59-13.73v-.08C359.21,93.45,353.25,87.52,344.62,87.52Zm9.53,13.81c0,5.38-3.76,9.26-9.53,9.26h-5.41V91.92h5.41c5.77,0,9.53,4,9.53,9.33Z"/><path class="cls-1" d="M399,87.33,386.9,115h4.94l2.82-6.63h13l2.79,6.63h5.1L403.45,87.33Zm-2.55,16.75,4.71-11,4.74,11Z"/><polygon class="cls-1" points="440.86 92 449.57 92 449.57 114.98 454.43 114.98 454.43 92 463.14 92 463.14 87.52 440.86 87.52 440.86 92"/><rect class="cls-1" x="494.62" y="87.52" width="4.82" height="27.46"/><polygon class="cls-1" points="552.07 106.51 537.36 87.52 532.89 87.52 532.89 114.98 537.63 114.98 537.63 95.45 552.77 114.98 556.82 114.98 556.82 87.52 552.07 87.52 552.07 106.51"/><path class="cls-1" d="M602.77,103.84h7V109a11.25,11.25,0,0,1-6.63,2.08c-5.61,0-9.34-4.16-9.34-9.81v-.08c0-5.25,3.85-9.68,8.91-9.68a10.74,10.74,0,0,1,7.69,2.94l3.06-3.65a14.86,14.86,0,0,0-10.56-3.73,14,14,0,0,0-14.16,14.2v.08c0,8,5.65,14.12,14.24,14.12a17.51,17.51,0,0,0,11.45-4.27V99.64H602.77Z"/><path class="cls-1" d="M694.45,87.33,682.37,115h4.94l2.83-6.63h13l2.79,6.63H711L698.93,87.33Zm-2.54,16.75,4.7-11,4.75,11Z"/><path class="cls-1" d="M764.26,96.27v-.08A8.3,8.3,0,0,0,762,90.27a11.1,11.1,0,0,0-7.93-2.75H741.83V115h4.82v-9.57h6l6.75,9.57h5.73l-7.42-10.39C761.56,103.49,764.26,100.78,764.26,96.27Zm-17.61,4.87V91.92h7c3.57,0,5.69,1.6,5.69,4.55v.08c0,2.78-2.19,4.59-5.65,4.59Z"/><polygon class="cls-1" points="794.22 92 802.93 92 802.93 114.98 807.79 114.98 807.79 92 816.5 92 816.5 87.52 794.22 87.52 794.22 92"/><path class="cls-1" d="M857.75,99.06c-5.29-1.26-6.55-2.2-6.55-4.32v-.08c0-1.8,1.65-3.25,4.47-3.25a12.53,12.53,0,0,1,7.46,2.82l2.58-3.65a15.23,15.23,0,0,0-10-3.45c-5.45,0-9.37,3.26-9.37,8v.07c0,5.06,3.29,6.79,9.14,8.2,5.1,1.18,6.19,2.24,6.19,4.2v.08c0,2-1.88,3.45-4.86,3.45a12.75,12.75,0,0,1-8.67-3.57l-2.9,3.45a16.91,16.91,0,0,0,11.45,4.39c5.77,0,9.81-3.06,9.81-8.2v-.07C866.54,102.55,863.56,100.47,857.75,99.06Z"/><path class="cls-1" d="M0,0V200.86H999.68V0ZM4.63,196.22V4.64H995.05V196.22Z"/></g></g></svg>