<svg xmlns="http://www.w3.org/2000/svg" viewBox="0 0 449.86 381.49"><defs><style>.a,.d,.e{opacity:0.26;}.b,.e{fill:#fff;}.c{fill:#ec1c24;}.d{fill:#58595b;}.f{fill:none;}</style></defs><g class="a"><path class="b" d="M409.94,192.24c-.53,2.75-1,5.5-1.61,8.25-1,5-1,5-6.14,5-1.65,0-3.3-.11-5-.12s-1.74-.76-1.32-2.08c2.43-7.6,4.73-15.23,7.21-22.82a8.49,8.49,0,0,0,0-5.86c-2.56-7.09-4.87-14.26-7.38-21.37-.55-1.61-.18-2.25,1.47-2.26l8.18-.05c1.38,0,1.95.68,2.14,2.07A48.53,48.53,0,0,0,410,163.76c.85-.38.87-1.11,1-1.74.65-3.16,1.31-6.33,1.86-9.51.2-1,.59-1.44,1.58-1.51a67.08,67.08,0,0,1,8.74,0c1.41.08,1.52.73,1.14,1.87-2.44,7.43-4.77,14.92-7.35,22.33a6.68,6.68,0,0,0,0,4.58c2.57,7.74,5.09,15.5,7.7,23.23.54,1.63.32,2.31-1.53,2.37-2.6.08-5.19.07-7.79,0-1.8,0-2.48-.92-2.76-2.48-.49-2.74-1-5.48-1.53-8.21-.16-.83-.38-1.64-.56-2.46Z"/><path class="b" d="M377.89,192.25c-.65,3.22-1.26,6.45-2,9.66-.77,3.4-.8,3.43-4.23,3.54-2.16.06-4.32-.09-6.49-.09-1.53,0-1.81-.69-1.38-2.06,2.46-7.72,4.82-15.47,7.32-23.16a7.67,7.67,0,0,0,0-5.34c-2.53-7.09-4.91-14.23-7.34-21.37-.72-2.09-.59-2.39,1.69-2.5,2.54-.13,5.08,0,7.64,0,1.52,0,2.19.73,2.38,2.29a55.29,55.29,0,0,0,1.91,9.29c.13.42.32.82.51,1.29.89-.43.87-1.26,1-1.95.64-3.09,1.3-6.19,1.84-9.31.18-1,.59-1.45,1.56-1.51a71,71,0,0,1,8.75,0c1.41.09,1.49.76,1.12,1.89-2.43,7.39-4.76,14.81-7.31,22.16a6.92,6.92,0,0,0-.08,4.77c2.53,7.57,5,15.15,7.48,22.72.86,2.62.81,2.8-2,2.9-2.4.1-4.81,0-7.25-.06a2.48,2.48,0,0,1-2.64-2.37q-.76-4.31-1.59-8.61c-.14-.71-.39-1.42-.57-2.13Z"/><path class="b" d="M438.91,172.37v19c0,2.74.09,2.88,2.83,3,2.15.11,4.32.08,6.49,0,1.07,0,1.48.38,1.52,1.39a74.4,74.4,0,0,1,0,8.18c-.06,1.15-.65,1.46-1.73,1.45q-9.16-.06-18.3,0c-1.74,0-2.29-.76-2.29-2.43q.06-25,0-49.92c0-1.44.48-2.1,1.89-2.23a54.93,54.93,0,0,1,7.59,0c1.45.08,2.06.67,2,2.25C438.86,159.53,438.91,166,438.91,172.37Z"/></g><g class="a"><path class="b" d="M415,37.24c-1.46-6.34-4.81-11.38-10.62-14.58a32.44,32.44,0,0,0-14.09-3.61c-8.65-.47-17.28-.81-25.8,1.05-9.58,2.14-15.73,8.08-17.57,17.77a89.69,89.69,0,0,0,0,32.83,21.85,21.85,0,0,0,17.31,17.6c5.58,1.19,11.21,1.23,16.85,1.3,1.37,0,2.75,0,4.12,0,5.37-.18,10.71-.43,15.84-2.31A20.89,20.89,0,0,0,414.12,74a39.14,39.14,0,0,0,2.06-11.5C416.53,54.07,416.86,45.58,415,37.24ZM378.36,68.43a.46.46,0,0,1-.46.45h-6.26a.45.45,0,0,1-.45-.45V52.1a.46.46,0,0,1,.45-.46h6.26a.46.46,0,0,1,.46.45Zm12.19-19.25V68.43a.47.47,0,0,1-.46.46h-5.93a.47.47,0,0,1-.46-.46V51.23a4,4,0,0,0,0-.49,4.35,4.35,0,0,0-4.62-4h-12.8a.47.47,0,0,0-.46.46V68.43a.47.47,0,0,1-.46.46h-5.93a.46.46,0,0,1-.45-.46V41.31a.46.46,0,0,1,.45-.46h22.64a8,8,0,0,1,6.26,2.47A7.67,7.67,0,0,1,390.55,49.18Zm12.23,19.25a.46.46,0,0,1-.45.46H396.4a.47.47,0,0,1-.46-.46V41.31a.47.47,0,0,1,.46-.46h5.93a.46.46,0,0,1,.45.46Z"/></g><g class="a"><path class="b" d="M140.68,0c4.06,0,8.12,0,12.17,0a6.22,6.22,0,0,1,6.1,5.1c.6,3.28-1.11,6.08-3.73,6.83a.76.76,0,0,0-.21.15A5.78,5.78,0,0,1,159.43,17c.69,4.1-1.57,7.47-5.84,7.94a24.86,24.86,0,0,1-2.86.11c-3.35,0-6.7,0-10,0Zm5.39,20.26a.58.58,0,0,0,.21.07c1.68,0,3.37.06,5,0a2.71,2.71,0,0,0,2.82-2.73,2.73,2.73,0,0,0-2.61-2.92,29.45,29.45,0,0,0-3.26-.08h-2.2v5.67Zm0-10.33h4.54a4.1,4.1,0,0,0,.86,0A2.44,2.44,0,0,0,153.55,8a2.6,2.6,0,0,0-2.48-3.35c-.84,0-1.68,0-2.52,0h-2.48c0,.18,0,.29,0,.4V9.94Zm91.35,15.57c-.63-.11-1.27-.2-1.9-.35-4.9-1.18-7.4-5.4-7-10.06.36-3.91,2.33-6.77,6.08-8.09,5.23-1.84,11.3.65,12.2,7.61.12.93.11,1.86.17,2.87H233.45a4.43,4.43,0,0,0,2.68,3.56,7.08,7.08,0,0,0,6.92-.87c.13-.08.25-.18.37-.27s0,0,.12,0L245.66,23a23.57,23.57,0,0,1-2,1.26,11.14,11.14,0,0,1-4.12,1.12,2.68,2.68,0,0,0-.49.11ZM242.3,14.2c.09-2.25-2.05-4-4.76-3.86-2.26.09-4.26,2-4,3.86Zm14.5,11.31c-.78-.15-1.57-.26-2.33-.48A8.83,8.83,0,0,1,248,17.16a9.47,9.47,0,0,1,3.58-8.83c4.33-3.41,12.85-2.64,14.54,5.42a11.62,11.62,0,0,1,.23,1.76c0,.63,0,1.26,0,2H252.89A4.15,4.15,0,0,0,254.05,20a5.61,5.61,0,0,0,5.34,1.47,7.14,7.14,0,0,0,3.52-1.62L265.07,23c-.57.38-1.08.78-1.64,1.08A11.16,11.16,0,0,1,259,25.39a4.88,4.88,0,0,0-.55.12Zm-3.88-11.32h8.79c.12-2.18-2-3.91-4.6-3.86-2.34.05-4.36,1.89-4.19,3.86Zm-85,11.32c-.57-.11-1.15-.22-1.72-.35A6.94,6.94,0,0,1,160.56,18V7h4.77v.67c0,3.29,0,6.58,0,9.88a3.35,3.35,0,0,0,1.86,3.4,4.31,4.31,0,0,0,4.53-.33,3.51,3.51,0,0,0,1.33-3.09c0-3.27,0-6.54,0-9.82V7h4.73V7.6c0,3.44,0,6.89,0,10.33A7.07,7.07,0,0,1,171,25.38c-.21,0-.41.09-.61.13ZM213,25V0h17.36V2.45c0,.54,0,1.08,0,1.61s-.16.63-.65.63c-3.43,0-6.85,0-10.28,0h-1.08V9.94H219c2.59,0,5.17,0,7.76,0,.52,0,.64.17.63.66,0,1.31,0,2.63,0,4H218.3V25Zm54.55,0V7.57c0-.73,0-.74.76-.73,2.62,0,5.25-.09,7.86.11,3.71.29,6.62,2,8,5.63a9.23,9.23,0,0,1-2.51,10.3A9.4,9.4,0,0,1,275.87,25c-2.7.1-5.4,0-8.09,0a1.48,1.48,0,0,1-.25-.05Zm4.55-3.83h2.63a5,5,0,0,0,5.37-4.81,5,5,0,0,0-2.84-5.17c-1.67-.69-3.42-.32-5.16-.42v10.4ZM187.4,11h-8.09V7h14.62c0,.77,0,1.55,0,2.32a2.46,2.46,0,0,1-.61,1.81c-2.44,3-4.83,6.09-7.24,9.13l-.45.6H194V25H179.27c0-1.14,0-2.28,0-3.42,0-.2.2-.4.34-.58L187,11.57c.1-.13.19-.28.36-.53Zm7.94,0V7.38a3.82,3.82,0,0,1,0-.43H210c0,1.1,0,2.19,0,3.27,0,.16-.17.34-.28.48q-3.76,4.79-7.54,9.55c-.12.16-.23.33-.42.6h.73c2.37,0,4.74,0,7.12,0,.44,0,.6.1.59.57,0,1.19,0,2.37,0,3.59H195.35c0-1.18,0-2.34,0-3.5,0-.15.16-.3.26-.43l7.24-9.21.63-.81Z"/></g><g class="a"><path class="b" d="M355.62,341.9a72.63,72.63,0,0,1,.06,7.38c0,5.09.14,10.19-.06,15.28-.07.12-.14.12-.22,0V341.9C355.48,341.78,355.55,341.78,355.62,341.9Z"/><path class="b" d="M355.62,341.9h-.22V326.79c.07-.12.15-.12.22,0Z"/><path class="b" d="M375.65,381.49c.1-.35.4-.25.63-.25l8,0c.08.05.1.1.08.15a.12.12,0,0,1-.09.06Z"/><path class="b" d="M355.62,326.78h-.22v-8.33h.22Z"/><path class="b" d="M384.22,381.49v-.21H391v.21Z"/><path class="b" d="M366.3,381.28l5.23,0c.2,0,.42,0,.49.25h-5.71c-.09,0-.12-.09-.09-.14S366.28,381.28,366.3,381.28Z"/><path class="b" d="M355.62,366.13v3.38c-.07.12-.15.12-.22,0v-3.38C355.47,366,355.55,366,355.62,366.13Z"/><path class="b" d="M366.3,381.28v.21H364v-.22Z"/><path class="b" d="M355.62,366.13h-.22v-1.55h.22Z"/><path class="b" d="M355.4,369.51h.22c-.06.53.33,1.11-.22,1.55Z"/><path class="b" d="M373.84,381.49a.59.59,0,0,1,.82-.2.58.58,0,0,1,.21.2Z"/><path class="b" d="M408.24,313.69c-.41-.05-.59-.41-.73-.67a8.1,8.1,0,0,0-4-3.36,1.09,1.09,0,0,1-.69-.83,40.73,40.73,0,0,0-3.81-11.3,14.47,14.47,0,0,1-1-5.18c-.26-3.09-.43-6.13-.83-9.18a7.71,7.71,0,0,0-3.62-6c-2.32-1.4-4.06-3.58-6.58-4.72-.95-.42-.65-1.38-.06-1.92,1.59-1.5,2.23-3.66,3.79-5.18a2.33,2.33,0,0,0,.59-2.62c-.16-.38.14-1,.34-1.47a8.92,8.92,0,0,0,.69-3.38,2.55,2.55,0,0,0-1.22-2.53c-.77-.44-1.1-1.43-1.94-1.86v-.34c1.43,0,2.86-.06,4.28,0,2.9.14,5.89-.44,8.76.41a8.8,8.8,0,0,1,6.19,8.1v51.16C408.36,313.12,408.49,313.41,408.24,313.69Z"/><path class="b" d="M390.19,321.84a9.37,9.37,0,0,0,7.65,6.26,10.09,10.09,0,0,0,9.71-4.64c.17-.27.23-.63.7-.77,0,5.58-.09,11.12,0,16.65.15,7.67.12,15.35,0,23,0,3.24.06,6.49-.18,9.74a9.67,9.67,0,0,1-8.2,8.77c2.43-2,3-3.57,1.93-6.58a74.34,74.34,0,0,1-2.53-11.94,4.51,4.51,0,0,1,.2-2.44,7.47,7.47,0,0,0-1.28-7.85,7.69,7.69,0,0,1-1.26-4c-.68-4.29-1.36-8.63-3.39-12.5a24.79,24.79,0,0,1-2.89-7.26c-.33-1.95-.51-3.93-.77-5.9C389.86,322.2,389.65,321.92,390.19,321.84Z"/><path class="b" d="M389.19,319c-.15-.72-.28-1.44-.42-2.16-.21-1.07-.78-2.1,0-3.22.17-.27,0-.85-.13-1.26A95.06,95.06,0,0,0,385.38,302a2.28,2.28,0,0,0-.9-1.38c-1.27-.65-.89-1.65-.57-2.55.77-2.1,1.59-4.18,2.44-6.24.72-1.7,2.37-2.32,3.82-3.09.58-.32.52.31.6.66.65,3.09,1.34,6.14,2,9.22s2.34,5.76,3.62,8.61c.72,1.61.78,1.55-.81,2.32a10.48,10.48,0,0,0-5.91,7.84C389.29,317.87,389.93,318.61,389.19,319Z"/><path class="b" d="M389.19,319c.47-.43,0-1.13.45-1.55v2.32c-.06.12-.12.12-.19,0S389.11,319.27,389.19,319Z"/><path class="b" d="M390.19,321.84l-.26.63c-.37-.4-.17-.91-.26-1.36a.57.57,0,0,1,.07-.68C390.08,320.83,389.94,321.39,390.19,321.84Z"/><path class="b" d="M389.7,320.43l-.07.68c-.36-.41-.21-.89-.18-1.36h.18Z"/><path class="b" d="M395.66,377c.25-1.94.54-3.87.73-5.79.08-.78.61-1.65.13-2.42a8.43,8.43,0,0,1-1-3.68c-.27-2.07-1.55-3.72-2.42-5.52a3.34,3.34,0,0,1-.55-2.32,5.38,5.38,0,0,0-1.82-4.81,68.49,68.49,0,0,1-9.94-7.85,60.93,60.93,0,0,1-12.61-17c-.49-1-1-1.54-2.15-1.35s-1.6-.34-2-1.4c-.64-1.82-1.55-3.55-2.27-5.33a46.7,46.7,0,0,1-2.26-5.2c-.78-2.84,0-5.57.44-8.33a5.5,5.5,0,0,1,1.23-2.8c.51-.61,1.38-1.18.83-2.08s-1.41-.27-2.14-.26c-1,0-2.14.09-2.58-1a7.19,7.19,0,0,1-.16-6c1.5-3.24,2.77-6.57,4.22-9.79a55,55,0,0,1,4.72-9.28c1.2-1.75,2.6-3.4,4.9-3.72,2-.29,4-.52,6-.71a2.18,2.18,0,0,0,2.11-1.55,21.1,21.1,0,0,0,.65-2.36,2.13,2.13,0,0,0-.08-1.55c-.89-1.5-1.49-3,.13-4.41.32-.28.22-.73.24-1.12.11-2.32.66-4.41,3-6-3.45-.07-6.6-.11-9.74-.06s-6.31-.25-9.45.25a9.49,9.49,0,0,0-7.94,9.28q0,27-.06,53.94a3.61,3.61,0,0,1-.24,1.66c-.22,2.79,0,5.58-.09,8.37v42.52c-.06.57.14,1.16-.13,1.72v.77a3.09,3.09,0,0,1,.23,1.38c.34,3.7,4.5,8.35,8.57,8.12h2.22a49.86,49.86,0,0,1,5.6.13h1.82a1,1,0,0,1,1,0h.78a2.22,2.22,0,0,1,1.25-.12h7.34c2.25,0,4.49.12,6.73-.08h6.18l.12-.4A4.58,4.58,0,0,1,395.66,377Zm-25.46-3c-1.48.09-2.32-.32-2.69-1.85a24.31,24.31,0,0,0-2-5c0,1.87-.08,3.74,0,5.6.07,1.46-.88,1.19-1.71,1.23s-1.63.12-1.61-1.16c0-4.64,0-9.2,0-13.79,0-.77.31-1,1.07-1.07,2.32-.13,2.32-.16,3.1,2,.54,1.64,1.06,3.31,1.58,5h.26c0-1.93,0-3.86,0-5.8s1.29-1.13,2.18-1.28c1.09-.18,1.15.46,1.14,1.31,0,4.51,0,9,0,13.53C371.54,373.72,371.2,373.91,370.2,374ZM382,371.2c-.11,2.06-1.08,2.73-3.14,2.73-1.55,0-3.09-.05-4.64,0-1,.05-1.46-.25-1.42-1.38.08-2.25,0-4.5,0-6.75h0v-6.89c0-.87.3-1.13,1.12-1.11,1.68,0,3.37,0,5.05,0a2.5,2.5,0,0,1,2.84,2.27c.25,1.69.56,3.48-.93,4.86-.24.22-.47.45-.1.78C382.73,367.17,382.07,369.31,382,371.2Zm10.12,2.56a7.77,7.77,0,0,1-1.8.15,1,1,0,0,1-1.15-.84,1,1,0,0,1,0-.25c0-.38-.21-.77-.21-1.14,0-.85-.19-1.37-1.25-1.34s-1.54.13-1.73,1.32c-.11.83.26,2.15-1.31,2.26-2.58.17-2.69.1-2.17-2.44.84-4.13,1.84-8.24,2.6-12.37.32-1.78,1.49-1.23,2.5-1.33,2.18.05,1.93-.39,2.42,1.88.92,4.36,1.8,8.73,2.72,13.09C392.83,373.3,392.73,373.62,392.1,373.76Z"/><path class="b" d="M376.16,368.92v-.77c0-.62-.21-1.34.89-1.24.89.07,1.55.23,1.46,1.32v1.54a1.36,1.36,0,0,1-1.23,1.48,1.4,1.4,0,0,1-.78-.17c-.34-.12-.32-.35-.32-.6C376.16,370,376.16,369.44,376.16,368.92Z"/><path class="b" d="M376.14,362.21c.13-.78-.42-1.74,1.05-1.71,1.2,0,1.43.59,1.37,1.61s-.08,1.8-1.37,1.84C375.6,364,376.36,362.83,376.14,362.21Z"/><path class="b" d="M387.58,362.54c.2,1.4.37,2.81.58,4.21.12.7-.23.77-.77.77s-.91-.17-.77-.81c.25-1.39.5-2.77.77-4.16Z"/></g><g class="a"><path class="b" d="M262.53,368.28V356.82c0-.44.1-.59.57-.58,3.23,0,6.45,0,9.67,0,.47,0,.58-.14.57-.58,0-1.18,0-1.19,1.16-1.19h2.74c.35,0,.53.05.51.47s-.2,1,.08,1.29.88.09,1.34.09c2.48,0,5,0,7.46,0,.45,0,.56.13.53.55q0,1,0,1.92c0,.44-.08.59-.56.59-3.32,0-6.65,0-10,0H267c-.48,0-.6.12-.6.6,0,6.58,0,13.15,0,19.75,0,.58-.16.7-.71.67a25.44,25.44,0,0,0-2.62,0c-.44,0-.59-.09-.58-.57C262.54,376,262.53,372.12,262.53,368.28Z"/><path class="b" d="M222.57,355.35a14.33,14.33,0,0,1,.4-3.45,5.12,5.12,0,0,1,8.5-2.48,6.4,6.4,0,0,1,2.14,4.62,14.88,14.88,0,0,1-.14,3.59c-.59,3.22-2.73,4.76-6.05,4.38a8.69,8.69,0,0,1-1.32-.23,4.41,4.41,0,0,1-3.35-3.82A16.2,16.2,0,0,1,222.57,355.35Z"/><path class="b" d="M200.71,352a8.5,8.5,0,0,1-.7,3.86,5.12,5.12,0,0,1-4.51,3.1,4.79,4.79,0,0,1-4.68-2.46c-2.35-3.66-.89-8.33.86-10.36a4.23,4.23,0,0,1,5.69-.76,6.91,6.91,0,0,1,3.34,5.69C200.72,351.34,200.71,351.67,200.71,352Z"/><path class="b" d="M213.93,342.4a8.77,8.77,0,0,1,3.63-6.74,3.46,3.46,0,0,1,4.74,0,7,7,0,0,1,2.57,7.85,9.42,9.42,0,0,1-1.94,3.48,5,5,0,0,1-5.51,1.67c-2.11-.63-3-2.23-3.37-4.26A9.41,9.41,0,0,1,213.93,342.4Z"/><path class="b" d="M200.71,341.1a9.06,9.06,0,0,1,1.87-5.81,4.29,4.29,0,0,1,3.39-1.75,4,4,0,0,1,2.87,1.24,7.7,7.7,0,0,1,2.18,4.47,9.73,9.73,0,0,1-1,6.27,6.16,6.16,0,0,1-1.4,1.77,3.93,3.93,0,0,1-5.41,0,7.74,7.74,0,0,1-2.42-4.84C200.76,341.94,200.74,341.43,200.71,341.1Z"/><path class="b" d="M187.68,371.25v8.49c0,.4-.09.52-.5.51-1.42,0-2.83,0-4.26,0-.34,0-.51,0-.51-.46q0-8.57,0-17.15c0-.36.08-.47.45-.47,1.44,0,2.88,0,4.32,0,.42,0,.5.14.49.53C187.67,365.54,187.68,368.4,187.68,371.25Z"/><path class="b" d="M185.07,360.18h-2.28c-.28,0-.37-.08-.36-.36v-3.9c0-.29.11-.36.38-.36h4.49c.31,0,.4.11.4.41q0,1.92,0,3.84c0,.32-.12.4-.4.4C186.55,360.17,185.81,360.18,185.07,360.18Z"/><path class="b" d="M227.18,366.61a45.75,45.75,0,0,1-9.36-9.84,9.29,9.29,0,0,0-2.32-2.36,6.81,6.81,0,0,0-6.52-.93,8.07,8.07,0,0,0-4.2,3.34,25,25,0,0,1-1.57,2.24,36.8,36.8,0,0,1-5.35,5.09,23.06,23.06,0,0,0-3,2.69,8.68,8.68,0,0,0-1.15,10.28,6.62,6.62,0,0,0,5.32,3.79,26.74,26.74,0,0,0,8.51-.53,18.25,18.25,0,0,1,6.83-.18c1.73.28,3.37.95,5.12,1.13.09,0,.12.08.1.16h.59c.06-.07.15-.05.23-.06a.31.31,0,0,1,.23.06H221a3.66,3.66,0,0,1,1.4,0H223a.14.14,0,0,1,.21,0h.37c.19-.25.48-.17.73-.22a6.63,6.63,0,0,0,5.33-4.49,10.67,10.67,0,0,0,.4-1.33C230.85,371.93,230.08,369,227.18,366.61Zm-17.79,10.56c-1.83,0-3.66,0-5.48,0a5.54,5.54,0,0,1-5.44-4.27c-.66-2.85.07-5.06,2.21-6.69a4.86,4.86,0,0,1,3.19-1.06c.86,0,1.71,0,2.57,0,.36,0,.46-.11.45-.46,0-1.16,0-2.32,0-3.49,0-.47.16-.54.57-.51a19.84,19.84,0,0,0,2,0c.4,0,.48.12.48.49v15.31C210,377,209.87,377.17,209.39,377.17Zm13.23-5.84v5.3c0,.38-.11.49-.49.49-2.34,0-4.67,0-7,0a3.63,3.63,0,0,1-3.52-3.54v-7.51c0-.4.08-.55.51-.53.73,0,1.47,0,2.21,0,.4,0,.49.11.48.48v6.75a1.34,1.34,0,0,0,1.49,1.51c.81,0,1.61,0,2.39,0,.45,0,.56-.11.55-.55v-7.56c0-.49.13-.63.61-.6a20.55,20.55,0,0,0,2.22,0c.44,0,.6.08.59.56-.08,1.75-.06,3.5-.06,5.24Z"/><path class="b" d="M285.64,361.34c-1,0-1,0-1-1,0-.28,0-.42-.37-.4h-3.1c-.29,0-.37.1-.34.37v.58c0,.37-.11.45-.47.45h-6.87c-.36,0-.5-.1-.46-.46a3.53,3.53,0,0,0,0-.46c.06-.37-.1-.46-.46-.45-.74,0-1.47,0-2.21,0-.92,0-.93,0-.93.89,0,.34-.07.52-.45.46h-.4c-.51,0-1.21-.23-1.49.12s-.06,1-.06,1.45c0,1.16,0,1.16,1.21,1.16h.7c.38,0,.5.09.49.48,0,1.36,0,2.72,0,4.07,0,.45.11.58.57.58h12.42A2.08,2.08,0,0,0,284.6,367v-2.44c0-.35.08-.48.45-.47.78,0,1.55,0,2.33,0v-2.71Zm-4.84,3.1c0,.4,0,.81,0,1.21a.86.86,0,0,1-.83.88h-6.62c-.33,0-.38-.14-.38-.4,0-.57,0-1.13,0-1.69,0-.33.09-.43.43-.4h7c.34,0,.46,0,.44.39Z"/><path class="b" d="M160.1,372.17a6.13,6.13,0,0,0-3.56-4.18,5.87,5.87,0,0,0,2.83-4.65,6.3,6.3,0,0,0-4.14-7.13,11.57,11.57,0,0,0-4.27-.81H138.6c-.43,0-.54.11-.54.54q0,12,0,24.09c0,.45.13.53.55.53h13.7a16.3,16.3,0,0,0,1.86-.11C159,379.81,161,376.38,160.1,372.17ZM144,360.32h7.71c1.75,0,2.62.73,2.66,2.21a2.64,2.64,0,0,1-2.59,3c-2.6.05-5.21,0-7.81,0-.27,0-.38-.06-.38-.35v-4.48C143.54,360.35,143.7,360.31,144,360.32Zm10.68,13.38a2.74,2.74,0,0,1-2.69,2.15c-2.66,0-5.32,0-8,0-.34,0-.42-.11-.4-.43v-4.54c0-.37.12-.46.47-.45,1.32,0,2.64,0,4,0h3.91A2.73,2.73,0,0,1,154.64,373.7Z"/><path class="b" d="M259.76,356.79c0-.48-.15-.56-.59-.56H236.32c-.42,0-.58.08-.57.54,0,.87,0,1.74,0,2.61,0,.47.13.58.58.58h9.09c.64,0,.64,0,.38.6-.17.37-.36.74-.49,1.12s-.33.48-.73.48c-2.56,0-5.13,0-7.69,0-.47,0-.58.13-.57.58v17.11c0,.44.09.59.57.59H256.8c1.69,0,2.34-.65,2.34-2.32V362.85c0-.55-.13-.71-.7-.7-2.52,0-5.05,0-7.57,0-.47,0-.53-.12-.36-.52a8.9,8.9,0,0,0,.43-1.26.58.58,0,0,1,.65-.51h0c2.52,0,5.05,0,7.58,0,.44,0,.55-.11.53-.55C259.73,358.52,259.72,357.64,259.76,356.79Zm-4.68,19.35c0,.68-.26.93-1,.93H241.21c-.45,0-.55-.12-.54-.54,0-1.09,0-2.18,0-3.26,0-.37.11-.45.46-.44h13.46c.4,0,.52.1.5.51,0,1,0,1.88,0,2.81Zm-.6-10.83c.5,0,.61.15.59.62,0,1,0,1.94,0,2.91,0,.32,0,.48-.43.48q-6.76,0-13.52,0c-.38,0-.45-.12-.44-.47,0-1,0-2,0-3,0-.41.11-.52.52-.52h6.7c2.23,0,4.39.06,6.59,0Z"/><path class="b" d="M179.94,367.77a2.74,2.74,0,0,0-.12-.81,6.51,6.51,0,0,0-6.12-4.74c-3.49-.12-7,0-10.47-.06-.39,0-.45.14-.44.47,0,.93,0,1.86,0,2.79,0,.47.13.58.58.58h8.75a2.6,2.6,0,0,1,2.82,2.82c0,.45-.11.58-.58.58-2.62,0-5.23,0-7.87,0a4,4,0,0,0-1.42.26,5.82,5.82,0,0,0-3.67,6,5.11,5.11,0,0,0,4.91,4.62h13.06c.47,0,.58-.13.57-.58C179.93,375.76,179.93,371.76,179.94,367.77Zm-5,8.46c0,.4-.08.53-.51.52-1.06,0-2.13,0-3.2,0h-3a1.88,1.88,0,0,1-1.7-1.11,1.59,1.59,0,0,1,.27-1.89,2.2,2.2,0,0,1,1.81-.86c1.93,0,3.88,0,5.82,0,.44,0,.55.12.54.55,0,.91,0,1.84,0,2.78Z"/><path class="b" d="M286.53,377.36c-1.28,0-2.57,0-3.85,0a5.85,5.85,0,0,1-2.77-.9c2-1.12,3.77-2.27,5.68-3.22a2.18,2.18,0,0,0,1.44-2.55c-.06-.37-.08-.53-.51-.53H268c-.35,0-.51.09-.45.45a2.67,2.67,0,0,1,0,.4,4.47,4.47,0,0,0,.08,1.84c.25.5,1,.69,1.58,1l4.41,2.56a6.68,6.68,0,0,1-3.09,1.15h-3.09c-.31,0-.46.06-.45.4,0,.65,0,1.29,0,1.93,0,.31.11.4.41.4a14.43,14.43,0,0,1,1.86,0,12.34,12.34,0,0,0,7.48-1.7.57.57,0,0,1,.72.07,6.51,6.51,0,0,0,3.43,1.34c1.92.12,3.85,0,5.77,0,.28,0,.38-.08.37-.36,0-.62,0-1.24,0-1.86C287,377.46,286.91,377.36,286.53,377.36Zm-9.74-2.75a.35.35,0,0,1-.38-.05L273.7,373l0-.09h6.07l0,.09Z"/><path class="b" d="M206.81,371.19v2.68c0,.43-.07.62-.56.58a10.82,10.82,0,0,0-1.61,0,2.9,2.9,0,0,1-3-2.33,3.77,3.77,0,0,1,1.41-3.9,2.35,2.35,0,0,1,1.43-.41c.77.05,1.54-.05,2.31.06a14.2,14.2,0,0,1,.07,2.35C206.82,370.53,206.81,370.86,206.81,371.19Z"/></g><g class="a"><path class="b" d="M37.78,122c-1.66,0-3.32,0-5,0a1.4,1.4,0,0,1-1.4-.78,28.59,28.59,0,0,1-3.49-9.59,44,44,0,0,1,1.62-23.48,22.31,22.31,0,0,1,1.95-4,1.27,1.27,0,0,1,1.23-.7q4.7.06,9.39,0c.7,0,1,.11,1,.89a28.64,28.64,0,0,0,0,3.21c0,.64-.2.8-.82.79-1.92,0-3.83,0-5.74,0a1.61,1.61,0,0,0-1.85,1.21,37.26,37.26,0,0,0-2.25,14.94,34.07,34.07,0,0,0,2.38,11.71,1.22,1.22,0,0,0,1.34,1c2.2-.07,4.41,0,6.62,0,.7,0,1.07.11,1,.94-.05,1.07-.05,2.14,0,3.2,0,.58-.15.76-.74.75C41.28,122,39.53,122,37.78,122Z"/><path class="b" d="M35,64.46H10.55c-.91,0-1.4-.15-1.24-1.19s-.4-2.19.2-2.76,1.83-.17,2.8-.17H59.5c.93,0,1.44.12,1.28,1.21-.15.93.39,2.15-.23,2.75s-1.76.15-2.67.15Q46.44,64.48,35,64.46Z"/><path class="b" d="M35.11,68.53H59.65c.92,0,1.22.23,1.12,1.16s.29,2.19-.19,2.8-1.8.19-2.75.19H10.64c-1.07,0-1.47-.28-1.32-1.34.13-.9-.39-2.1.22-2.64s1.7-.15,2.58-.15Z"/><path class="b" d="M36,37.29v6.42a1.73,1.73,0,0,0,.65,1.51c1.52,1.35,3,2.75,4.5,4.07.49.43.48.64,0,1.07-1.86,1.62-3.68,3.29-5.48,5-.43.4-.7.5-1.17.05-1.82-1.71-3.68-3.4-5.55-5.05-.46-.41-.42-.62,0-1,1.39-1.27,2.79-2.62,4.26-3.85a2.37,2.37,0,0,0,.92-2.1c0-4.19,0-8.39,0-12.59,0-.7.14-1,1-1s1,.22,1,1C36,33,36,35.12,36,37.29Z"/><path class="b" d="M61.61,39.52a9.84,9.84,0,0,1,0,1.88c-.44,2.45.53,4.19,2.51,5.59a35.88,35.88,0,0,1,2.7,2.38c.37.32.39.53,0,.86l-5.77,5.29c-.31.3-.51.28-.82,0q-2.86-2.66-5.79-5.28c-.48-.42-.22-.63.11-.93,1.53-1.4,3-2.8,4.58-4.15a1.69,1.69,0,0,0,.63-1.4V35.14c0-.77.23-1,1-1s.91.3.89,1C61.56,36.58,61.61,38.05,61.61,39.52Z"/><path class="b" d="M46.92,50.18a21.18,21.18,0,0,1,0-2.76,4.05,4.05,0,0,0-1.83-4.12c-1.19-.92-2.22-2-3.37-3-.46-.4-.43-.63,0-1,1.88-1.64,3.75-3.32,5.56-5,.46-.43.7-.39,1.17,0q2.69,2.53,5.46,5c.49.44.49.7,0,1.09-1.52,1.35-3,2.75-4.51,4.08a1.66,1.66,0,0,0-.63,1.39v8.73c0,.77-.19,1-1,1s-.94-.26-.92-1C47,53.13,46.92,51.65,46.92,50.18Z"/><path class="b" d="M16.09,49.84C14,51.72,12,53.53,10,55.37c-.41.38-.7.41-1.09,0q-2.8-2.58-5.65-5.1c-.42-.37-.35-.6,0-.93,1.53-1.32,3-2.7,4.54-4a2,2,0,0,0,.76-1.7c0-2.8,0-5.67,0-8.5,0-.77.21-1,1-1s.89.32.88,1v8.61a1.79,1.79,0,0,0,.67,1.51C12.73,46.73,14.39,48.27,16.09,49.84Z"/><path class="b" d="M21.37,50.22a11,11,0,0,1,0-2,5,5,0,0,0-2.31-5.34c-1.07-.74-1.95-1.77-3-2.61-.43-.37-.42-.58,0-.94,1.92-1.71,3.84-3.44,5.73-5.19.34-.31.55-.32.9,0q2.79,2.61,5.63,5.14c.45.39.46.62,0,1-1.49,1.32-2.93,2.69-4.43,4A2,2,0,0,0,23.16,46c0,2.88,0,5.75,0,8.63,0,.7-.14,1-.9.94s-1-.16-.94-.91C21.41,53.16,21.37,51.69,21.37,50.22Z"/><path class="b" d="M23.32,121c-1.51-5.07-3-10.14-4.54-15.19a2.53,2.53,0,0,1,.24-2.16c3.43-6.3,3.38-12.7.08-19.08a1.75,1.75,0,0,0-1.8-1q-6.69.09-13.37,0c-.93,0-1.13.24-1.13,1.15,0,9.94,0,19.89,0,29.83,0,2.2,0,4.41,0,6.63,0,.73.2.94.92.9a32.51,32.51,0,0,1,3.42,0c.8,0,1-.23,1-1V107.92c0-1-.42-2.18.18-2.76s1.82-.16,2.8-.17c2,0,2,0,2.6,2q2.09,7.08,4.19,14.14c.12.4,0,1,.79,1h4.89C23.47,121.65,23.41,121.33,23.32,121Zm-8-21.69a.88.88,0,0,1-.94.7H8.86c-.7,0-.78-.28-.77-.85V89.25c0-.63.2-.82.82-.8h5.52a.92.92,0,0,1,1,.75A14.37,14.37,0,0,1,15.32,99.33Z"/><path class="b" d="M68.63,95.37a30.57,30.57,0,0,0-3.57-10.72,1.86,1.86,0,0,0-1.9-1.11c-2.1.09-4.13,0-6.19,0-4.9,0-4.9,0-6.66,4.7a43.63,43.63,0,0,0-1.82,22.29,30.68,30.68,0,0,0,3.5,10.4,1.78,1.78,0,0,0,1.88,1.1c1.54-.09,3.1,0,4.64,0s3.32,0,5,0a1.45,1.45,0,0,0,1.48-.84,24.63,24.63,0,0,0,2-4.3A44.14,44.14,0,0,0,68.63,95.37Zm-4.71,9.31a34.6,34.6,0,0,1-2.32,11.5,1.31,1.31,0,0,1-1.52,1h0a20.32,20.32,0,0,0-3.31,0c-.76,0-1-.34-1.25-.93a34.79,34.79,0,0,1-2.35-13.5,35.1,35.1,0,0,1,2.36-13.37,1.25,1.25,0,0,1,1.44-1,17.72,17.72,0,0,0,3.09,0c.94-.11,1.29.35,1.59,1.1A36.79,36.79,0,0,1,63.92,104.68Z"/></g><path class="c" d="M322.05,77.17c0-2.71-.53-3.53-3.4-3.53q-105.87.14-211.76,0c-2.66,0-3.51.47-3.51,3.38q.15,105.89,0,211.77c0,2.51.47,3.34,3.21,3.33,35.29-.11,70.58-.07,105.87-.07s70.78,0,106.17.07c2.85,0,3.4-.74,3.4-3.47Q321.94,182.9,322.05,77.17ZM208.89,138.64h14.73c1.35,0,2.12.14,2,1.82-.07,1.45-.17,2.24-2,2.24-3.91,0-3.93.14-3.94,4.15v19.93c0,1.62.41,2.23,2.07,2.08s3.08,0,4.62,0c5.26,0,6.94-1.26,7.63-6.48.27-2,.95-2.46,2.83-2.42,2.3,0,1.43,1.62,1.47,2.64.1,2.59-.1,5.21.07,7.79.13,2-.35,2.68-2.47,2.59-4.42-.17-8.85,0-13.28,0-4.62,0-9.25-.06-13.87,0-1.61,0-2.16-.4-2.15-2.08s.66-2.26,2.22-2c2.83.44,3.72-.86,3.66-3.59-.13-6.35-.1-12.71,0-19.06,0-2.5-.67-3.93-3.44-3.54-1.6.23-2.44-.14-2.45-2.1S207.5,138.64,208.89,138.64Zm-90.42,4c-1.79,0-.91-1.53-1.09-2.42-.21-1.08.23-1.55,1.4-1.53,4,0,8.1.07,12.15,0,1.39,0,1.67.61,1.49,1.73-.15.89.63,2.36-1.25,2.27-2.56-.12-2.59,1.09-1.89,3.09,2.12,6,4.1,12.1,6.36,18.81,2.12-6.09,4.12-11.56,5.89-17.1a3.88,3.88,0,0,0-2.94-4.65,2.7,2.7,0,0,0-.41-.07c-1.93-.14-1.42-1.34-1.56-2.4-.24-1.61.69-1.73,1.91-1.73,4,0,7.91.08,11.86,0,1.45,0,1.87.44,1.73,1.81-.11,1.11.29,2.45-1.64,2.21-2.54-.31-2.61.9-2,2.93,1.87,6,3.59,11.94,5.58,18.63,2.36-6.74,4.53-12.85,6.63-19,.55-1.63-.05-2.73-1.92-2.56s-2.57-.28-2.56-2.31c0-2.43,1.64-1.67,2.78-1.67,13.89,0,27.77,0,41.65-.09,2.27,0,2.81.66,2.64,2.76-.17,2.3-.05,4.62,0,6.93,0,1.1.12,2.22-1.55,2-1.14-.12-2.39.45-2.82-1.51-1.2-5.42-2.28-6.15-7.92-6.18-2.32,0-4.63.06-6.94,0-1.28,0-1.68.42-1.63,1.66.08,1.83-.11,3.68.07,5.49.12,1.13-1,3,1,3.3s4.34.13,5.16-2.51a5.48,5.48,0,0,0,.37-2.23c-.18-1.68.82-1.56,2-1.59s2,.12,1.93,1.67c-.09,4.43-.07,8.87,0,13.31,0,1.3-.24,2-1.74,1.85-1.13-.1-2.44.26-2.1-1.68a4.45,4.45,0,0,0-.73-2.73c-1.07-2.12-3.1-2.23-5-1.93s-.85,2-.93,3.09c-.16,2.3,0,4.62-.07,6.93,0,1.25.38,1.68,1.64,1.65,3.08-.07,6.17.06,9.25-.06s4.83-2.09,5.69-6.2c.22-1-.24-2.62,1.8-2.64,1.73,0,2.67.2,2.52,2.3q-.21,4.33,0,8.68c0,1.47-.37,2-1.93,2q-15.18-.09-30.37,0c-1.57,0-1.73-.68-1.64-1.91s-.3-2.53,1.62-2.19c3.55.64,4.06-1.64,4.07-4.27,0-6,.06-12,0-17.93,0-1.68.09-3.77-2.38-3.92s-5.15-.78-6.27,2.52c-2.08,6.09-4.21,12.15-6.3,18.23-.84,2.45-1.72,4.9-2.46,7.38a2.46,2.46,0,0,1-2.78,2.1h0c-5.21,0-5.22.07-6.73-4.93-1.19-3.94-2.37-7.89-3.82-12.69-1.87,5.64-3.66,10.5-5.2,15.43-.53,1.68-1.29,2.46-3,2.16a3.18,3.18,0,0,0-1.15,0c-3.13.61-4.42-.82-5.32-3.81-2.42-7.9-5.2-15.66-7.85-23.48C121.19,144.05,120.66,142.64,118.47,142.64Zm18.58,60.18c.12,1.19-1.35,3.25,1.24,3.58,2.81.35,4.55-1,5.08-3.52.17-.87-.59-2.22,1.29-2.29s2.85,0,2.71,2.36c-.22,3.75-.08,7.52-.05,11.28,0,1.34.12,2.44-1.84,2.41-1.66,0-2.21-.53-2.11-2.17a3.5,3.5,0,0,0-2.71-3.91c-2.94-.85-3.69-.28-3.69,2.79,0,1.73.11,3.48,0,5.2-.2,2.66,1,3.81,3.55,3.55,1.69-.18,2.33.26,2.35,2.14s-.92,1.89-2.29,1.87H126.12c-1.22,0-2.47.36-2.43-1.74,0-1.76.47-2.48,2.29-2.25,2.84.37,3.66-1.07,3.61-3.75q-.19-9.54,0-19.09c.06-2.47-.63-3.67-3.24-3.35-1.55.19-2.69.13-2.68-2.14s1.26-1.91,2.59-1.91h13.86c4.62,0,9.26.1,13.88,0,1.86-.06,2.29.55,2.19,2.28-.14,2.5,0,5,0,7.52,0,1,.24,2.17-1.51,2-1.26-.1-2.3.12-2.64-1.73-.85-4.51-3-6-8-6-2.27,0-5.29-1-6.61.47-1.18,1.22-.6,4.22-.38,6.38ZM225.86,220c-.3,5.19-3.51,7.88-8.66,7.18-3.08-.41-4.65-1.87-5.07-5-.25-1.9-.19-3.84-.39-5.75a7.53,7.53,0,0,0-8.41-6.53,7.25,7.25,0,0,0-1.38.31c-1,.33-.72,1-.73,1.59,0,2.31.16,4.64-.06,6.93-.28,2.77.85,3.78,3.45,3.35,2.19-.35,2.54.73,2.43,2.61-.08,1.19-.51,1.4-1.56,1.4H174.24c-1.52,0-1.49-.81-1.38-1.82s-.54-2.08,1.32-2.23c4.13-.35,4-.43,2.69-4.44-.6-1.79-1.39-2.74-3.46-2.49a47.87,47.87,0,0,1-5.49.05c-3.93,0-5.56,1.43-6,5.35-.24,2.27,1.55,1.52,2.59,1.53,1.57,0,2.75-.06,2.61,2.19-.1,1.58-.59,1.89-2,1.86-4-.08-8.1,0-12.15,0-.92,0-2.32.54-2.12-1.34.12-1.19-.63-2.78,1.73-2.73s3.3-1.56,4-3.5c3.21-8.21,6.54-16.39,9.66-24.64.65-1.71,1.55-2.3,3.17-2,1.83.34,4.09-1.14,5.25,1.94,3.11,8.25,6.55,16.38,9.87,24.56a6.19,6.19,0,0,0,7.93,3.7l.07,0c1.07-.35,1.18-1.13,1.18-2v-22c0-2.53-1.7-2.23-3.17-2.07-2.21.26-2.9-.55-2.69-2.72.11-1.22.62-1.4,1.62-1.39,7.81,0,15.63-.11,23.42.17,5.61.2,8.75,3.85,8.59,9.15a6.81,6.81,0,0,1-4.1,6.35c-1.21.57-2.51,1-3.76,1.42,3.84,1.49,4.87,3,4.92,7.12a29.74,29.74,0,0,0,.17,4c.14.92.5,2,1.77,1.93s1.51-1,1.6-2c.1-1.18.15-2.18,1.91-2.14s1.95.68,1.87,2.1Zm36.38-8.21c-1.68.06-2.15,1.23-2.11,2.82.08,2.79.1,5.59,0,8.38,0,1,.78,2.61-.68,3s-3.14.71-4-1.17c-.54-1.13-1.13-.84-2-.32-6.35,3.76-12.86,4.06-19-.2s-7.81-10.85-6.88-17.9c1.54-11.62,10.18-17.72,20.68-15a16.43,16.43,0,0,1,5.83,3,14.37,14.37,0,0,0,.78-1.44c.69-1.88,2.29-1,3.47-1,1.35,0,.69,1.34.72,2.06.09,2.5.08,5,0,7.52,0,.71.61,2.08-.77,2s-3.06,1.07-4-1a16.89,16.89,0,0,0-2.56-4.15,8.4,8.4,0,0,0-14,1.75,19.22,19.22,0,0,0,0,17.79c2,4.16,6.36,5.7,10.77,4.29a6.88,6.88,0,0,0,4.35-8.71.78.78,0,0,0-.05-.14c-.54-1.46-1.78-1.73-3.06-1.59-1.88.21-1.92-.83-2-2.25,0-1.63.71-1.89,2.11-1.87,3.95.07,7.9,0,11.85,0,.84,0,2.22-.48,2,1.18-.18,1,1,2.81-1.45,2.93Zm-4.81-38.84H243.84c-1.51,0-2.26-.2-2.19-2,.06-1.53.29-2.18,2-2.17,3.8,0,3.8-.08,3.81-3.94,0-6.18-.1-12.35,0-18.52.07-2.72-.79-4.1-3.63-3.67-1.81.28-2.23-.43-2.27-2.2,0-2,1.07-1.8,2.34-1.8h14.75c1.34,0,2.13.13,2.06,1.83-.06,1.52-.28,2.44-2,2.17-3.07-.46-4,.86-3.86,3.9.22,6.75.12,13.5,0,20.25,0,1.64.46,2.2,2.09,2.07s3.28,0,4.92,0c4.66,0,6.36-1.47,7-6.16.23-1.66.37-3,2.66-2.75,1.52.12,2,.54,1.91,2-.11,3-.14,6,0,9,.08,1.77-.66,2-2.19,2-4.55-.08-9.18,0-13.81,0Zm46.77,37.92c-.42,9.63-8.87,16.75-19.44,16.37s-18.24-8.35-17.85-18.63c.42-11.08,8.38-18.22,19.82-17.8,10.93.39,18,8.49,17.47,20ZM306,164.33a8.79,8.79,0,0,1-5.48,7.86c-6.5,2.87-12.85,2.7-18.72-2a8.58,8.58,0,0,1-1.2,2.33c-.82.82-2,.47-3,.29s-.58-1.27-.59-1.93c-.07-2.89-.08-5.78,0-8.67,0-.78-.68-2.2,1-2.16,1.24,0,3-.87,3.43,1.37,1,5.17,6,8.44,12.09,7.91a10.57,10.57,0,0,0,3.33-.82c1.5-.71,2.78-1.76,2.85-3.67s-1.29-3.2-2.89-3.94c-3.18-1.45-6.69-1.68-10-2.56-4.51-1.2-8.65-3-9.79-8.17a9.26,9.26,0,0,1,5.65-11,15.88,15.88,0,0,1,16.74,1.77,10.66,10.66,0,0,1,1.52-2,2.82,2.82,0,0,1,2.5-.16c1,.27.57,1.28.58,2,.06,2.41.08,4.82,0,7.22,0,.9.64,2.38-1.17,2.35-1.29,0-2.64.55-3.49-1.46-2.52-5.91-7.2-8-12.75-6.17-1.85.62-3.32,1.58-3.38,3.77s1.29,3.36,3.18,3.89c2.86.81,5.75,1.5,8.63,2.19a21.86,21.86,0,0,1,6.15,2.35,9.32,9.32,0,0,1,4.81,9.39Z"/><path class="c" d="M201.2,200.87c0-5,0-5,5.14-5a11.62,11.62,0,0,1,4.54.45,4.64,4.64,0,0,1,3.29,4.84,4.52,4.52,0,0,1-3.71,4.52,31.13,31.13,0,0,1-8,.59c-1.07,0-1.28-.52-1.26-1.42C201.23,203.56,201.2,202.22,201.2,200.87Z"/><path class="c" d="M174.32,210.93c-.73.08-1.1.16-1.47.16h-7.36c1.43-3.92,2.76-7.6,4.39-12.1Z"/><path class="c" d="M275.22,209.08a19.71,19.71,0,0,1,1.22-7.91,9.23,9.23,0,0,1,9.11-6.24c4.18.1,7.45,1.81,9,5.91a21.68,21.68,0,0,1,0,16.3,9,9,0,0,1-9.05,5.91c-4.16-.2-7.38-2-9-6.07A19.06,19.06,0,0,1,275.22,209.08Z"/><path class="d" d="M36,316.38l1.69,3.24,3.45.49-2.33,2.53.36,3.52L36,324.59l-3.2,1.57.53-3.58-2.47-2.47,3.62-.3L36,316.38Z"/><path class="e" d="M30.86,320.11l5.24,1.37-2.77,1.1Zm1.94,6.05,3.3-4.68-.1,3.11Zm6.37,0-3.07-4.68,2.71,1.16Zm2-6.05-5,1.33,1.52-1.82,3.45.49ZM36,316.43l.1,5.05-1.62-1.67Z"/><path class="d" d="M36,301.81l1.69,3.26,3.45.49-2.33,2.51.36,3.53L36,310l-3.2,1.56.53-3.59-2.47-2.45,3.62-.32L36,301.81Z"/><path class="e" d="M30.86,305.56l5.24,1.35L33.33,308Zm1.94,6,3.3-4.69L36,310l-3.2,1.56Zm6.37,0-3.07-4.69,2.71,1.16Zm2-6-5,1.31,1.52-1.8Z"/><path class="e" d="M36,301.87l.1,5-1.62-1.67Z"/><path class="d" d="M13.28,301.81,15,305.07l3.45.49-2.32,2.51.36,3.53L13.28,310l-3.17,1.56.53-3.59-2.5-2.45,3.62-.32,1.52-3.43Z"/><path class="e" d="M8.14,305.56l5.27,1.35L10.64,308Zm2,6,3.3-4.69L13.28,310l-3.17,1.56Zm6.35,0-3.05-4.69,2.69,1.16.36,3.53Zm2-6-5,1.31,1.5-1.8Z"/><path class="e" d="M13.28,301.87l.13,5-1.65-1.67Z"/><path class="d" d="M58.71,301.81l1.7,3.26,3.44.49-2.34,2.51.38,3.53L58.71,310l-3.19,1.56.53-3.59-2.5-2.45,3.62-.32,1.54-3.43Z"/><path class="e" d="M53.55,305.56l5.27,1.35L56.05,308Zm2,6,3.3-4.69L58.71,310l-3.19,1.56Zm6.37,0-3.07-4.69,2.69,1.16Zm2-6-5,1.31,1.53-1.8Zm-5.16-3.69.13,5-1.65-1.67,1.52-3.37Z"/><path class="e" d="M28.26,287.15c-.31-.41-.28-.34,0,0Z"/><g class="a"><polygon class="f" points="19.08 249.15 20.94 249.15 20.94 241.28 23.46 241.28 23.46 239.52 16.56 239.52 16.56 241.28 19.08 241.28 19.08 249.15"/><path class="f" d="M43.63,263.76c-.82-.36-6.28-2.73-11.84-1.12,2.45-.72,7.93,2.05,9.81,3.22,3.56,2.22,5.33,6.47,5.57,10.51,0,.15,0,.31,0,.48a16.12,16.12,0,0,1-1.1,6.37,18.65,18.65,0,0,1-3.85,6.13s-4.63,3.49.78,2.71a12,12,0,0,0,5.54-2.36V267A18.37,18.37,0,0,0,43.63,263.76Z"/><path class="f" d="M37.2,280.85v0h1.29v.83a2.44,2.44,0,0,1-.61.38,1.37,1.37,0,0,1-.7.17A1.39,1.39,0,0,1,36,281.7,2.74,2.74,0,0,1,35.6,280a2.43,2.43,0,0,1,.42-1.6,1.44,1.44,0,0,1,1.16-.55,1.17,1.17,0,0,1,.81.27,1.34,1.34,0,0,1,.44.74l1.1-.25a2.15,2.15,0,0,0-2.35-1.88,2.59,2.59,0,0,0-1.33.31,2.67,2.67,0,0,0-1.06,1.21,4.27,4.27,0,0,0-.36,1.77,4.62,4.62,0,0,0,.32,1.72,2.49,2.49,0,0,0,1,1.2,2.84,2.84,0,0,0,1.53.43,3.39,3.39,0,0,0,1.35-.3,3.31,3.31,0,0,0,1-.7v-2.6H37.2Z"/><rect class="f" x="32.45" y="276.79" width="1.14" height="6.43"/><rect class="f" x="10.83" y="239.42" width="2.31" height="9.73"/><polygon class="f" points="27.77 283.22 28.89 283.22 28.89 280.49 31.22 280.49 31.22 279.41 28.89 279.41 28.89 277.89 31.58 277.89 31.58 276.79 27.77 276.79 27.77 283.22"/><path class="f" d="M48.56,264.14v-9.9h-25l0,10.11a20.37,20.37,0,0,1,25-.21Z"/><path class="f" d="M20.41,282.84a10.67,10.67,0,0,1,1.21-4.34v-9.64a18.71,18.71,0,0,0,0,23.38v-.32C20.46,289.44,20.3,284.71,20.41,282.84Z"/><path class="f" d="M45.64,292.91c-3.74,1.86-8.31,1.12-11.84-.83l-.42-.23a20.65,20.65,0,0,1-4.73-4.22c-.41-.74-2.86-4.69-3.27-6.59,0,0-.27-4.13-1.87-2.17l0,13.25a13.12,13.12,0,0,0,4.93,5.06c5.43,3,12.9,2,18-1.44a18.7,18.7,0,0,0,2.2-1.75V291.2A30.92,30.92,0,0,1,45.64,292.91Z"/><path class="f" d="M26.92,272.9l.41-.26a15.59,15.59,0,0,1,6.11-2.09,16.2,16.2,0,0,1,7.23.42s4.83,2.12,2-2c-3.78-5.5-12.46-6.46-17.55-3.26a14.15,14.15,0,0,0-1.59,1.17l0,8.86A15.43,15.43,0,0,1,26.92,272.9Z"/><path class="f" d="M53.55,286.27c-.32,1.13-1.61,2.41-3.09,3.57V292A15.54,15.54,0,0,0,53.55,286.27Z"/><path class="f" d="M21.62,286.28V284.1A11.34,11.34,0,0,0,21.62,286.28Z"/><path class="f" d="M54.34,278.25a16.13,16.13,0,0,0-3.93-9.31L50.46,288A13.66,13.66,0,0,0,54.34,278.25Z"/><path class="f" d="M55.16,247.2h3.11l.61,2H61l-3.51-9.63H55.84l-3.43,9.63h2Zm1.69-4.53,1,3.05h-2.1Z"/><rect class="f" x="46.95" y="239.42" width="2.31" height="9.73"/><path class="f" d="M23.47,296.5l-.06,27.33,12.38,8.06,12.77-8.06V296.76a20.42,20.42,0,0,1-25.09-.26Z"/><path class="f" d="M41.12,277.57a3.8,3.8,0,0,0-.72,2.5,3.72,3.72,0,0,0,.72,2.39,2.28,2.28,0,0,0,1.82.87,2.13,2.13,0,0,0,1.48-.51,3,3,0,0,0,.82-1.57l-1.08-.4a1.87,1.87,0,0,1-.46,1.06,1,1,0,0,1-.76.34,1.19,1.19,0,0,1-1-.53,3,3,0,0,1-.38-1.74,2.85,2.85,0,0,1,.38-1.67,1.2,1.2,0,0,1,1-.5,1.11,1.11,0,0,1,.76.29,1.46,1.46,0,0,1,.4.78l1.1-.31a2.7,2.7,0,0,0-.57-1.19,2.14,2.14,0,0,0-1.65-.7A2.28,2.28,0,0,0,41.12,277.57Z"/><polygon class="f" points="43.42 247.39 39.13 247.39 39.13 239.42 37.27 239.42 37.27 249.15 43.42 249.15 43.42 247.39"/><path class="f" d="M50.41,265.71a20.46,20.46,0,0,1,.06,29.42l0,17.17,8.61,4.59,7.93-4.59V254.24H50.38Z"/><path class="f" d="M21.62,266.05V254.24H5L5.1,312.3l8.61,4.59,7.91-4.59V294.85a20.45,20.45,0,0,1,0-28.8Z"/><path class="f" d="M28,247.2h3.14l.61,2H33.9l-3.51-9.63H28.72l-3.44,9.63h2Zm1.72-4.53,1,3.05H28.6Z"/><polygon class="b" points="29.74 242.67 28.6 245.72 30.69 245.72 29.74 242.67"/><polygon class="b" points="56.85 242.67 55.71 245.72 57.8 245.72 56.85 242.67"/><path class="b" d="M.36,231.46,0,314.63l35.74,22.59,36.11-22.78v-83Zm55.48,8.06h1.67L61,249.15H58.88l-.61-2H55.16l-.72,2h-2Zm-8.89-.1h2.31v9.73H47Zm-9.68,0h1.86v8h4.29v1.76H37.27Zm-8.55.1h1.67l3.51,9.63H31.77l-.61-2H28l-.71,2h-2Zm-12.16,0h6.9v1.76H20.94v7.87H19.08v-7.87H16.56Zm-5.73-.1h2.3v9.73h-2.3ZM67.05,312.3l-7.93,4.59-8.61-4.59,0-17.17a21.31,21.31,0,0,1-1.91,1.63v27.07l-12.77,8.06-12.38-8.06.06-27.33a19.29,19.29,0,0,1-1.85-1.65V312.3l-7.91,4.59L5.1,312.3,5,254.24H21.62v11.81a20.64,20.64,0,0,1,1.92-1.7l0-10.11h25v9.9a19.91,19.91,0,0,1,1.85,1.57l0-11.47H67.05Z"/><path class="b" d="M22.31,293a4,4,0,0,1-.69-1.07v.32C21.84,292.49,22.07,292.75,22.31,293Z"/><path class="b" d="M56.68,280.45a20.44,20.44,0,0,0-6.27-14.74v3.23a16.13,16.13,0,0,1,3.93,9.31A13.66,13.66,0,0,1,50.46,288v1.83c1.48-1.16,2.77-2.44,3.09-3.57A15.54,15.54,0,0,1,50.46,292v3.15A20.4,20.4,0,0,0,56.68,280.45Z"/><path class="b" d="M25.13,265.73c5.09-3.2,13.77-2.24,17.55,3.26,2.82,4.1-2,2-2,2a16.2,16.2,0,0,0-7.23-.42,15.59,15.59,0,0,0-6.11,2.09l-.41.26a15.43,15.43,0,0,0-3.4,2.86v3.11c1.6-2,1.87,2.17,1.87,2.17.41,1.9,2.86,5.85,3.27,6.59a20.65,20.65,0,0,0,4.73,4.22l.42.23c3.53,1.95,8.1,2.69,11.84.83a30.92,30.92,0,0,0,2.92-1.71v-1.5A12,12,0,0,1,43,292.06c-5.41.78-.78-2.71-.78-2.71a18.65,18.65,0,0,0,3.85-6.13,16.12,16.12,0,0,0,1.1-6.37c0-.17,0-.33,0-.48-.24-4-2-8.29-5.57-10.51-1.88-1.17-7.36-3.94-9.81-3.22,5.56-1.61,11,.76,11.84,1.12A18.37,18.37,0,0,1,48.56,267v-2.86a20.37,20.37,0,0,0-25,.21v2.55A14.15,14.15,0,0,1,25.13,265.73Zm6.45,12.16H28.89v1.52h2.33v1.08H28.89v2.73H27.77v-6.43h3.81Zm2,5.33H32.45v-6.43h1.14Zm6-.87a3.31,3.31,0,0,1-1,.7,3.39,3.39,0,0,1-1.35.3,2.84,2.84,0,0,1-1.53-.43,2.49,2.49,0,0,1-1-1.2,4.62,4.62,0,0,1-.32-1.72,4.27,4.27,0,0,1,.36-1.77A2.67,2.67,0,0,1,35.85,277a2.59,2.59,0,0,1,1.33-.31,2.15,2.15,0,0,1,2.35,1.88l-1.1.25a1.34,1.34,0,0,0-.44-.74,1.17,1.17,0,0,0-.81-.27,1.44,1.44,0,0,0-1.16.55,2.43,2.43,0,0,0-.42,1.6A2.74,2.74,0,0,0,36,281.7a1.39,1.39,0,0,0,1.14.57,1.37,1.37,0,0,0,.7-.17,2.44,2.44,0,0,0,.61-.38v-.83H37.2v-1.14h2.42Zm5.6-3.78-1.1.31a1.46,1.46,0,0,0-.4-.78,1.11,1.11,0,0,0-.76-.29,1.2,1.2,0,0,0-1,.5,2.85,2.85,0,0,0-.38,1.67,3,3,0,0,0,.38,1.74,1.19,1.19,0,0,0,1,.53,1,1,0,0,0,.76-.34,1.87,1.87,0,0,0,.46-1.06l1.08.4a3,3,0,0,1-.82,1.57,2.13,2.13,0,0,1-1.48.51,2.28,2.28,0,0,1-1.82-.87,3.72,3.72,0,0,1-.72-2.39,3.8,3.8,0,0,1,.72-2.5,2.28,2.28,0,0,1,1.88-.89,2.14,2.14,0,0,1,1.65.7A2.7,2.7,0,0,1,45.22,278.57Z"/><path class="b" d="M17.58,282.08a18.88,18.88,0,0,1,4-13.22v-2.81a20.45,20.45,0,0,0,0,28.8v-2.61A19,19,0,0,1,17.58,282.08Z"/><path class="b" d="M46.36,295.74c-5,3.45-12.52,4.42-17.95,1.44a13.12,13.12,0,0,1-4.93-5.06v4.38a20.42,20.42,0,0,0,25.09.26V294A18.7,18.7,0,0,1,46.36,295.74Z"/><path class="b" d="M21.62,284.1v-5.6a10.67,10.67,0,0,0-1.21,4.34c-.11,1.87.05,6.6,1.21,9.08v-5.64A11.34,11.34,0,0,1,21.62,284.1Z"/><path class="b" d="M21.62,286.28v5.64a4,4,0,0,0,.69,1.07c-.24-.24-.47-.5-.69-.75v2.61a19.29,19.29,0,0,0,1.85,1.65v-4.38A14.56,14.56,0,0,1,21.62,286.28Z"/><path class="b" d="M48.56,294v2.77a21.31,21.31,0,0,0,1.91-1.63V292A19.75,19.75,0,0,1,48.56,294Z"/><path class="b" d="M21.62,284.1a10.49,10.49,0,0,1,1-3.82,7.6,7.6,0,0,1,.86-1.41v-3.11a13.16,13.16,0,0,0-1.9,2.74Z"/><path class="b" d="M48.56,291.2c.63-.42,1.28-.87,1.9-1.36V288a13.83,13.83,0,0,1-1.9,1.69Z"/><path class="b" d="M23.54,266.9v-2.55a20.64,20.64,0,0,0-1.92,1.7v2.81A14.23,14.23,0,0,1,23.54,266.9Z"/><path class="b" d="M50.41,268.94v-3.23a19.91,19.91,0,0,0-1.85-1.57V267A18.85,18.85,0,0,1,50.41,268.94Z"/></g></svg>